<svg width="2841" height="649" viewBox="0 0 2841 649" fill="none" xmlns="http://www.w3.org/2000/svg">
<g clip-path="url(#clip0)">
<path d="M1273.46 198.359C1273.41 208.484 1270.36 218.366 1264.69 226.758C1259.03 235.151 1251.01 241.678 1241.64 245.516C1232.27 249.354 1221.98 250.33 1212.05 248.322C1202.13 246.315 1193.02 241.412 1185.88 234.234C1178.74 227.056 1173.89 217.924 1171.93 207.99C1169.98 198.056 1171.01 187.765 1174.9 178.416C1178.78 169.067 1185.35 161.078 1193.77 155.459C1202.19 149.839 1212.09 146.84 1222.21 146.84C1228.96 146.857 1235.64 148.204 1241.87 150.803C1248.09 153.401 1253.75 157.201 1258.51 161.985C1263.27 166.769 1267.04 172.444 1269.6 178.685C1272.17 184.926 1273.48 191.611 1273.46 198.359Z" fill="#CEE800"/>
<path d="M1405.95 198.359C1405.92 208.499 1402.9 218.404 1397.25 226.828C1391.61 235.251 1383.6 241.816 1374.23 245.697C1364.86 249.577 1354.56 250.599 1344.61 248.633C1334.66 246.668 1325.52 241.803 1318.33 234.652C1311.14 227.501 1306.23 218.382 1304.21 208.445C1302.2 198.508 1303.16 188.196 1307 178.807C1310.83 169.419 1317.35 161.374 1325.74 155.686C1334.14 149.997 1344.02 146.92 1354.16 146.84C1367.8 146.875 1380.87 152.319 1390.5 161.977C1400.14 171.635 1405.54 184.719 1405.54 198.359" fill="#CEE800"/>
<path d="M915.005 373.364L979.971 294.403C984.678 288.754 981.854 282.297 974.86 282.297H926.169C923.568 282.271 920.997 282.853 918.662 283.998C916.327 285.142 914.291 286.817 912.718 288.888L868.063 345.788V292.789C868.264 291.364 868.132 289.912 867.676 288.547C867.221 287.182 866.454 285.941 865.436 284.924C864.418 283.906 863.178 283.139 861.813 282.683C860.448 282.227 858.996 282.095 857.571 282.297H822.062C820.637 282.095 819.185 282.227 817.82 282.683C816.455 283.139 815.214 283.906 814.197 284.924C813.179 285.941 812.412 287.182 811.956 288.547C811.501 289.912 811.368 291.364 811.57 292.789V475.729C811.368 477.154 811.501 478.607 811.956 479.972C812.412 481.337 813.179 482.577 814.197 483.595C815.214 484.613 816.455 485.38 817.82 485.835C819.185 486.291 820.637 486.424 822.062 486.222H857.975C859.399 486.424 860.852 486.291 862.217 485.835C863.582 485.38 864.822 484.613 865.84 483.595C866.857 482.577 867.624 481.337 868.08 479.972C868.536 478.607 868.668 477.154 868.466 475.729V404.84L928.455 479.227C929.753 481.259 931.515 482.952 933.597 484.169C935.678 485.385 938.019 486.089 940.426 486.222H991C992.36 486.23 993.694 485.85 994.845 485.125C995.996 484.401 996.915 483.362 997.495 482.132C998.075 480.901 998.29 479.531 998.117 478.182C997.943 476.833 997.387 475.562 996.515 474.519L915.005 373.364Z" fill="white"/>
<path d="M1916.39 282.297H1764.54C1762.24 282.332 1760.05 283.269 1758.44 284.905C1756.83 286.541 1755.93 288.745 1755.93 291.04V330.319C1755.93 332.614 1756.83 334.818 1758.44 336.454C1760.05 338.09 1762.24 339.027 1764.54 339.062H1812.42V477.478C1812.42 479.797 1813.34 482.021 1814.98 483.661C1816.62 485.3 1818.85 486.221 1821.17 486.221H1860.44C1861.59 486.221 1862.73 485.995 1863.79 485.556C1864.85 485.117 1865.81 484.472 1866.62 483.661C1867.43 482.849 1868.08 481.885 1868.52 480.824C1868.96 479.763 1869.18 478.626 1869.18 477.478V339.062H1916.39C1918.71 339.062 1920.94 338.141 1922.58 336.501C1924.22 334.862 1925.14 332.638 1925.14 330.319V291.04C1925.14 288.721 1924.22 286.498 1922.58 284.858C1920.94 283.218 1918.71 282.297 1916.39 282.297Z" fill="white"/>
<path d="M1511.27 374.304C1547.31 339.734 1523.37 281.758 1467.95 281.758H1372.86C1370.56 281.758 1368.36 282.66 1366.72 284.271C1365.09 285.882 1364.15 288.071 1364.12 290.367V477.477C1364.12 479.796 1365.04 482.02 1366.68 483.66C1368.32 485.299 1370.54 486.22 1372.86 486.22H1477.24C1549.6 486.22 1568.97 402.552 1511.27 374.842V374.304ZM1419.13 327.762H1455.98C1458.18 327.559 1460.4 327.817 1462.49 328.519C1464.58 329.221 1466.51 330.352 1468.14 331.839C1469.77 333.326 1471.07 335.138 1471.96 337.157C1472.85 339.177 1473.31 341.36 1473.31 343.567C1473.31 345.775 1472.85 347.958 1471.96 349.978C1471.07 351.997 1469.77 353.808 1468.14 355.296C1466.51 356.783 1464.58 357.914 1462.49 358.616C1460.4 359.318 1458.18 359.576 1455.98 359.373H1419.13V327.762ZM1467.95 440.62H1419.13V402.552H1467.95C1497.81 402.552 1499.7 440.62 1467.95 440.62Z" fill="white"/>
<path d="M1319.33 290.906C1319.29 288.61 1318.35 286.421 1316.72 284.81C1315.08 283.199 1312.88 282.297 1310.58 282.297H1265.66C1263.36 282.297 1261.16 283.199 1259.52 284.81C1257.89 286.421 1256.95 288.61 1256.92 290.906V477.478C1256.92 478.626 1257.14 479.763 1257.58 480.824C1258.02 481.885 1258.67 482.849 1259.48 483.661C1260.29 484.472 1261.25 485.117 1262.31 485.556C1263.37 485.995 1264.51 486.221 1265.66 486.221H1310.58C1312.9 486.221 1315.13 485.3 1316.77 483.661C1318.41 482.021 1319.33 479.797 1319.33 477.478V290.906Z" fill="white"/>
<path d="M2231.94 282.297H2149.09C2146.77 282.297 2144.55 283.218 2142.91 284.858C2141.27 286.498 2140.35 288.721 2140.35 291.04V477.478C2140.35 479.797 2141.27 482.021 2142.91 483.661C2144.55 485.3 2146.77 486.221 2149.09 486.221H2188.09C2190.41 486.221 2192.64 485.3 2194.28 483.661C2195.92 482.021 2196.84 479.797 2196.84 477.478V422.327H2229.39C2274.98 422.327 2310.09 398.249 2310.09 352.648C2310.09 309.872 2274.58 282.297 2231.94 282.297ZM2227.64 376.457H2197.11V329.377H2226.97C2247.01 329.377 2253.87 338.659 2253.87 352.245C2253.87 365.831 2248.49 376.054 2226.97 376.054" fill="white"/>
<path d="M2121.78 475.999L2052.38 289.965C2051.58 287.583 2050.01 285.535 2047.91 284.146C2045.82 282.758 2043.32 282.107 2040.81 282.298H1988.36C1985.86 282.09 1983.37 282.736 1981.3 284.129C1979.22 285.522 1977.68 287.58 1976.92 289.965L1907.38 475.999C1906.8 477.116 1906.52 478.371 1906.59 479.631C1906.65 480.891 1907.06 482.11 1907.76 483.158C1908.47 484.206 1909.44 485.044 1910.58 485.583C1911.72 486.123 1912.99 486.344 1914.24 486.223H1958.5C1960.38 486.14 1962.19 485.51 1963.72 484.411C1965.25 483.312 1966.43 481.792 1967.1 480.035L1976.12 453.132H2053.59L2062.6 480.035C2063.28 481.792 2064.46 483.312 2065.98 484.411C2067.51 485.51 2069.33 486.14 2071.21 486.223H2115.46C2116.72 486.344 2117.98 486.123 2119.13 485.583C2120.27 485.044 2121.24 484.206 2121.94 483.158C2122.65 482.11 2123.05 480.891 2123.12 479.631C2123.19 478.371 2122.91 477.116 2122.32 475.999H2121.78ZM1992.66 406.052L2015.12 338.794L2037.58 406.052H1992.66Z" fill="white"/>
<path d="M1213.2 477.478V291.04C1213.2 288.721 1212.28 286.498 1210.64 284.858C1209 283.218 1206.78 282.297 1204.46 282.297H1161.15C1159.58 282.338 1158.04 282.75 1156.66 283.498C1155.29 284.246 1154.1 285.309 1153.21 286.601L1072.51 395.962V291.04C1072.51 288.721 1071.59 286.498 1069.95 284.858C1068.31 283.218 1066.09 282.297 1063.77 282.297H1024.76C1022.47 282.332 1020.28 283.269 1018.67 284.905C1017.05 286.541 1016.15 288.745 1016.15 291.04V477.478C1016.15 479.774 1017.05 481.978 1018.67 483.614C1020.28 485.249 1022.47 486.186 1024.76 486.221H1068.21C1069.79 486.165 1071.33 485.733 1072.71 484.961C1074.09 484.189 1075.27 483.1 1076.14 481.782L1156.84 372.556V477.478C1156.84 479.797 1157.77 482.021 1159.41 483.661C1161.04 485.3 1163.27 486.221 1165.59 486.221H1205C1206.15 486.221 1207.28 485.995 1208.34 485.556C1209.4 485.117 1210.37 484.472 1211.18 483.661C1211.99 482.849 1212.64 481.885 1213.07 480.824C1213.51 479.763 1213.74 478.626 1213.74 477.478H1213.2Z" fill="white"/>
<path d="M1742.88 447.614L1719.48 422.998C1718.67 421.99 1717.65 421.176 1716.48 420.617C1715.32 420.059 1714.05 419.769 1712.75 419.77C1710.55 419.8 1708.43 420.665 1706.84 422.191C1694.34 433.35 1678.13 439.442 1661.37 439.274C1647.31 438.577 1634.05 432.498 1624.34 422.294C1614.63 412.091 1609.21 398.545 1609.21 384.459C1609.21 370.374 1614.63 356.828 1624.34 346.624C1634.05 336.421 1647.31 330.342 1661.37 329.645C1678.22 329.661 1694.44 335.997 1706.84 347.401C1708.43 348.926 1710.55 349.791 1712.75 349.822C1714.04 349.795 1715.31 349.493 1716.47 348.936C1717.63 348.379 1718.65 347.581 1719.48 346.594L1742.88 321.843C1744.41 320.246 1745.27 318.132 1745.3 315.924C1745.28 313.544 1744.31 311.271 1742.61 309.602C1732.07 298.94 1719.5 290.505 1705.64 284.797C1691.77 279.09 1676.9 276.226 1661.91 276.377C1633.09 276.377 1605.44 287.828 1585.06 308.211C1564.68 328.594 1553.23 356.239 1553.23 385.065C1553.23 413.891 1564.68 441.536 1585.06 461.919C1605.44 482.302 1633.09 493.753 1661.91 493.753C1676.91 493.934 1691.79 491.085 1705.65 485.375C1719.52 479.666 1732.09 471.215 1742.61 460.528C1743.42 459.739 1744.06 458.797 1744.5 457.757C1744.93 456.718 1745.16 455.602 1745.16 454.474C1745.16 453.347 1744.93 452.231 1744.5 451.192C1744.06 450.152 1743.42 449.21 1742.61 448.421L1742.88 447.614Z" fill="white"/>
<path d="M2440.29 392.332C2440.24 402.456 2437.19 412.339 2431.53 420.731C2425.86 429.124 2417.84 435.651 2408.47 439.488C2399.1 443.326 2388.81 444.303 2378.88 442.295C2368.96 440.287 2359.86 435.385 2352.72 428.207C2345.58 421.029 2340.72 411.897 2338.77 401.963C2336.81 392.028 2337.84 381.738 2341.73 372.388C2345.61 363.039 2352.18 355.051 2360.6 349.431C2369.03 343.812 2378.92 340.813 2389.05 340.812C2395.79 340.83 2402.47 342.177 2408.7 344.775C2414.93 347.374 2420.58 351.174 2425.34 355.958C2430.1 360.742 2433.87 366.416 2436.43 372.657C2439 378.898 2440.31 385.584 2440.29 392.332Z" fill="#CEE800"/>
<path d="M2627.39 280.953H2473.52C2471.18 280.988 2468.96 281.939 2467.33 283.601C2465.69 285.262 2464.77 287.5 2464.77 289.831V328.033C2464.77 330.352 2465.69 332.576 2467.33 334.216C2468.97 335.856 2471.2 336.777 2473.52 336.777H2522.07V478.69C2522.07 481.022 2522.99 483.26 2524.62 484.921C2526.26 486.582 2528.48 487.533 2530.81 487.568H2571.17C2573.51 487.533 2575.75 486.587 2577.41 484.929C2579.06 483.272 2580.01 481.034 2580.04 478.69V336.777H2627.93C2630.25 336.777 2632.47 335.856 2634.11 334.216C2635.75 332.576 2636.67 330.352 2636.67 328.033V289.831C2636.67 287.5 2635.75 285.262 2634.12 283.601C2632.48 281.939 2630.26 280.988 2627.93 280.953" fill="white"/>
<path d="M2758.53 349.555H2726.12V326.553H2805.88C2808.21 326.518 2810.43 325.567 2812.07 323.906C2813.7 322.244 2814.62 320.006 2814.62 317.675V289.427C2814.64 288.267 2814.43 287.116 2813.99 286.04C2813.56 284.963 2812.92 283.983 2812.11 283.157C2811.29 282.331 2810.32 281.675 2809.25 281.227C2808.19 280.779 2807.04 280.549 2805.88 280.549H2677.29C2676.13 280.549 2674.98 280.779 2673.91 281.227C2672.84 281.675 2671.87 282.331 2671.06 283.157C2670.25 283.983 2669.61 284.963 2669.17 286.04C2668.74 287.116 2668.53 288.267 2668.55 289.427V478.689C2668.55 481.021 2669.46 483.259 2671.1 484.92C2672.74 486.581 2674.96 487.532 2677.29 487.567H2761.49C2804.67 487.567 2840.85 463.758 2840.85 420.31C2840.31 374.306 2804.94 349.555 2758.53 349.555ZM2755.84 439.68H2726.12V392.331H2757.05C2778.3 392.331 2783.95 404.572 2783.95 416.409C2783.28 430.264 2776.29 439.68 2755.84 439.68Z" fill="white"/>
<path d="M335.561 248C329.838 248 324.172 246.878 318.886 244.698C313.6 242.518 308.8 239.323 304.759 235.297C300.718 231.27 297.516 226.49 295.337 221.232C293.158 215.973 292.045 210.339 292.061 204.653V45.5105C291.749 39.6498 292.641 33.7873 294.683 28.2804C296.725 22.7734 299.874 17.7374 303.939 13.4792C308.003 9.22104 312.898 5.82991 318.324 3.51251C323.75 1.19512 329.594 0 335.5 0C341.406 0 347.25 1.19512 352.676 3.51251C358.102 5.82991 362.997 9.22104 367.061 13.4792C371.126 17.7374 374.275 22.7734 376.317 28.2804C378.359 33.7873 379.251 39.6498 378.939 45.5105V204.653C378.955 210.329 377.846 215.953 375.675 221.204C373.503 226.454 370.312 231.229 366.284 235.254C362.256 239.279 357.47 242.476 352.198 244.663C346.927 246.85 341.273 247.984 335.561 248Z" fill="white"/>
<path d="M234.876 321.94C233.131 327.362 230.333 332.387 226.644 336.728C222.954 341.068 218.444 344.639 213.372 347.236C208.3 349.833 202.766 351.404 197.086 351.861C191.406 352.317 185.691 351.65 180.27 349.896L29.2856 300.518C18.5263 296.806 9.65286 289.024 4.57169 278.844C-0.509489 268.663 -1.39295 256.897 2.11112 246.072C5.61519 235.248 13.2272 226.229 23.3117 220.953C33.3962 215.678 45.1486 214.567 56.0438 217.859L207.028 267.116C217.979 270.715 227.058 278.505 232.277 288.78C237.497 299.055 238.431 310.978 234.876 321.94Z" fill="white"/>
<path d="M436.126 321.994C437.872 327.407 440.671 332.423 444.363 336.756C448.055 341.088 452.568 344.653 457.643 347.245C462.718 349.837 468.255 351.405 473.939 351.861C479.623 352.317 485.341 351.65 490.766 349.9L641.844 300.733C652.833 297.193 661.962 289.445 667.221 279.193C672.481 268.942 673.441 257.027 669.891 246.069C666.34 235.112 658.57 226.01 648.289 220.765C638.008 215.52 626.058 214.563 615.069 218.103L463.991 267.27C453.032 270.863 443.948 278.639 438.726 288.895C433.503 299.151 432.568 311.053 436.126 321.994Z" fill="white"/>
<path d="M128.737 641.168C119.506 634.367 113.329 624.228 111.537 612.936C109.744 601.643 112.481 590.102 119.156 580.8L212.667 451.974C215.99 447.349 220.202 443.427 225.059 440.434C229.916 437.442 235.322 435.438 240.962 434.54C246.602 433.641 252.366 433.866 257.918 435.201C263.471 436.535 268.702 438.954 273.309 442.315C282.514 449.136 288.671 459.272 290.462 470.555C292.253 481.838 289.535 493.37 282.891 502.683L189.38 631.026C186.056 635.651 181.844 639.573 176.987 642.566C172.13 645.558 166.725 647.562 161.084 648.46C155.444 649.359 149.681 649.134 144.128 647.799C138.576 646.464 133.344 644.046 128.737 640.685" fill="white"/>
<path d="M542.283 641.185C551.506 634.377 557.68 624.195 559.467 612.849C561.254 601.502 558.509 589.906 551.829 580.577L459.036 450.997C455.714 446.367 451.513 442.441 446.675 439.446C441.836 436.451 436.454 434.445 430.84 433.543C425.225 432.642 419.489 432.864 413.96 434.195C408.431 435.526 403.219 437.94 398.623 441.3C389.454 448.147 383.32 458.324 381.536 469.652C379.752 480.979 382.459 492.558 389.078 501.908L481.871 631.003C485.193 635.633 489.393 639.559 494.232 642.554C499.071 645.549 504.453 647.555 510.067 648.456C515.682 649.358 521.418 649.136 526.947 647.805C532.476 646.474 537.688 644.06 542.283 640.7" fill="white"/>
</g>
<defs>
<clipPath id="clip0">
<rect width="2840.85" height="649" fill="white"/>
</clipPath>
</defs>
</svg>
